Coordinates
version=1
nRows=14
nColumns=40
inDegrees=yes

Units are S.I. units (second, meters, Newtons, ...)
Angles are in degrees.

endheader
time	pelvis_tilt	pelvis_list	pelvis_rotation	pelvis_tx	pelvis_ty	pelvis_tz	hip_flexion_r	hip_adduction_r	hip_rotation_r	knee_angle_r	knee_angle_r_beta	ankle_angle_r	subtalar_angle_r	mtp_angle_r	hip_flexion_l	hip_adduction_l	hip_rotation_l	knee_angle_l	knee_angle_l_beta	ankle_angle_l	subtalar_angle_l	mtp_angle_l	lumbar_extension	lumbar_bending	lumbar_rotation	arm_flex_r	arm_add_r	arm_rot_r	elbow_flex_r	pro_sup_r	wrist_flex_r	wrist_dev_r	arm_flex_l	arm_add_l	arm_rot_l	elbow_flex_l	pro_sup_l	wrist_flex_l	wrist_dev_l
      4.64000000	     -4.31997545	     -4.27167549	    -10.93783488	      1.03168245	      0.92729732	      0.50269136	     18.05453937	      3.61174649	     -7.55539127	     20.29108556	     20.29108556	      7.62792661	     -0.55947816	     -3.74277494	     -1.15825719	     -8.15865438	    -18.11761044	     21.05839556	     21.05839556	     17.28613024	    -14.26360023	      1.52982587	     -9.16320521	      7.70196999	      0.10006911	    -10.24738038	    -14.36117239	    -13.92057284	     39.32227856	     46.16019958	      0.00000000	      0.00000000	     21.30100438	    -16.22142423	    -19.38080398	     92.23857476	     48.54521347	      0.00000000	      0.00000000
      4.65914286	     -4.40689039	     -4.28581428	    -10.81615234	      1.03217267	      0.92782192	      0.50663884	     17.48604485	      3.81399772	     -7.77921500	     19.96311870	     19.96311870	      7.96726369	     -0.21268163	     -3.72971794	     -0.25723535	     -8.85923149	    -17.80405447	     23.43548999	     23.43548999	     16.68603597	    -15.02361941	      1.15038619	     -9.13864770	      7.71309041	      0.12512875	     -9.14794556	    -14.81785825	    -14.08172856	     40.07695598	     46.14495525	      0.00000000	      0.00000000	     21.27602687	    -16.03105722	    -19.24985443	     92.01964532	     48.53470005	      0.00000000	      0.00000000
      4.67828571	     -4.48573817	     -4.31059073	    -10.64320477	      1.03252817	      0.92827937	      0.51044878	     16.88823319	      4.01830789	     -8.03068804	     19.58518456	     19.58518456	      8.30642494	      0.14347391	     -3.72296755	      0.85649573	     -9.62150376	    -17.36383055	     26.17843619	     26.17843619	     15.93775098	    -15.85369930	      0.65791334	     -9.07821957	      7.73509193	      0.15674687	     -8.04780325	    -15.30178771	    -14.20846572	     40.91678523	     46.12416539	      0.00000000	      0.00000000	     21.12676034	    -15.79909451	    -19.11429885	     91.66948639	     48.52067259	      0.00000000	      0.00000000
      4.69742857	     -4.47644553	     -4.37757064	    -10.43382852	      1.03277698	      0.92879878	      0.51415278	     16.19799939	      4.24573808	     -8.31253587	     19.21210979	     19.21210979	      8.61425986	      0.44789619	     -3.73327436	      2.03820913	    -10.44525097	    -16.83010877	     29.18211158	     29.18211158	     15.02555009	    -16.70561918	      0.23243026	     -9.13263337	      7.74781837	      0.20960443	     -6.88011357	    -15.78629160	    -14.26893836	     41.72874888	     46.10189975	      0.00000000	      0.00000000	     20.95569350	    -15.52351553	    -18.94905934	     91.22814073	     48.50213755	      0.00000000	      0.00000000
      4.71657143	     -4.52955578	     -4.43038717	    -10.18312097	      1.03289611	      0.92910402	      0.51764028	     15.58165700	      4.45506971	     -8.61494904	     18.82642438	     18.82642438	      8.94648704	      0.77262426	     -3.71218528	      3.48698574	    -11.28281731	    -16.15607647	     32.46765192	     32.46765192	     14.06228939	    -17.45588460	     -0.05009302	     -9.03468914	      7.80861828	      0.33224261	     -6.24403043	    -16.46053662	    -13.76230452	     43.72096426	     45.98785784	      0.00000000	      0.00000000	     20.74046664	    -15.12527328	    -18.78110501	     90.05428591	     48.47885565	      0.00000000	      0.00000000
      4.73571429	     -4.38413964	     -4.55311546	     -9.90191577	      1.03292888	      0.92959984	      0.52101665	     14.76408585	      4.70963786	     -8.88381449	     18.47217575	     18.47217575	      9.26325042	      0.96445789	     -3.75257945	      4.79338540	    -12.13524090	    -15.38972973	     35.80436826	     35.80436826	     13.00187116	    -18.12315968	     -0.10428293	     -9.21967257	      7.83567467	      0.45422523	     -4.89676038	    -16.95379066	    -13.77398373	     44.27725900	     45.97494370	      0.00000000	      0.00000000	     20.37318743	    -14.74066372	    -18.47306560	     89.48488125	     48.44667220	      0.00000000	      0.00000000
      4.75485714	     -4.41199250	     -4.62853835	     -9.54372821	      1.03274282	      0.92978305	      0.52409097	     14.16527163	      4.92957497	     -9.17737537	     18.11272419	     18.11272419	      9.52663505	      1.06424813	     -3.83215715	      6.59624120	    -12.87714762	    -14.23664211	     39.52203063	     39.52203063	     13.04315804	    -18.38612475	      2.99161253	     -9.04802891	      7.88036641	      0.41509100	     -3.69254770	    -17.62275533	    -12.95938968	     45.01373318	     45.90332198	      0.00000000	      0.00000000	     19.98144815	    -14.46432148	    -18.02821648	     87.44893817	     48.38403983	      0.00000000	      0.00000000
      4.77400000	     -4.21060144	     -4.78545243	     -9.20767296	      1.03253740	      0.93011695	      0.52711529	     13.37617399	      5.19164699	     -9.45967806	     17.88077292	     17.88077292	      9.84491229	      1.15631226	     -3.86801560	      7.96497592	    -13.65644752	    -13.30098830	     42.73615765	     42.73615765	     11.98325093	    -18.75491165	      3.26651845	     -9.27761703	      7.88893532	      0.54926259	     -2.25401803	    -18.07092109	    -12.98602288	     45.55232060	     45.89274659	      0.00000000	      0.00000000	     19.29829797	    -13.98322134	    -17.67366267	     86.65445158	     48.34211937	      0.00000000	      0.00000000
      4.79314286	     -4.20464572	     -4.82471956	     -8.78574811	      1.03201328	      0.93011139	      0.52965435	     12.87878005	      5.34039002	     -9.70968219	     17.71993932	     17.71993932	     10.27040839	      1.12193795	     -3.72255417	      9.94885916	    -14.08604427	    -11.77772466	     46.33749289	     46.33749289	     13.10063717	    -18.82868691	      9.51985108	     -9.13071334	      7.87135102	      0.56330286	     -0.81820252	    -18.64662162	    -12.14874189	     45.62922252	     45.84767700	      0.00000000	      0.00000000	     18.90719385	    -13.73824104	    -16.91635059	     83.65492159	     48.24076863	      0.00000000	      0.00000000
      4.81228571	     -4.07802578	     -4.99705164	     -8.35040644	      1.03144677	      0.93001862	      0.53214711	     12.30488987	      5.60734909	     -9.98476551	     17.66839771	     17.66839771	     10.66170377	      0.98615738	     -3.74976346	     11.47710211	    -14.72343184	    -10.72824892	     49.08741698	     49.08741698	     12.31543674	    -19.03140085	     10.09165535	     -9.24210566	      7.94645435	      0.44742163	      0.79281120	    -18.89839176	    -12.18537646	     46.22081643	     45.83596940	      0.00000000	      0.00000000	     17.84567543	    -13.45753359	    -16.49795829	     82.09884720	     48.17888333	      0.00000000	      0.00000000
      4.83142857	     -3.85267082	     -4.99340667	     -7.90975684	      1.03071058	      0.93000365	      0.53432499	     11.83073883	      5.67854614	     -9.98034607	     17.92836783	     17.92836783	     11.18079280	      0.41659561	     -3.48684558	     12.97076066	    -14.95500837	     -9.55043055	     51.59295224	     51.59295224	     12.89007869	    -19.17143725	     14.07799522	     -9.32598727	      7.80730518	      0.38612077	      2.73636566	    -19.14521034	    -11.77960828	     46.00178981	     45.83166539	      0.00000000	      0.00000000	     17.49584051	    -13.25592513	    -15.51218466	     78.00145795	     48.04161054	      0.00000000	      0.00000000
      4.85057143	     -3.67499988	     -5.04924381	     -7.42482175	      1.02984504	      0.92960562	      0.53628172	     11.46786726	      5.79377231	    -10.07814845	     18.29055503	     18.29055503	     11.77434356	     -0.12131435	     -3.33443841	     14.43665113	    -15.26524368	     -8.55400821	     53.59213657	     53.59213657	     13.15746427	    -19.28171711	     16.26493738	     -9.43431385	      7.72725824	      0.32680293	      4.54458087	    -19.26835645	    -11.69856906	     46.19372545	     45.82765547	      0.00000000	      0.00000000	     16.69862555	    -12.92184754	    -14.57012165	     74.89967865	     47.92300401	      0.00000000	      0.00000000
      4.86971429	     -3.49749286	     -5.09749453	     -6.88302663	      1.02882518	      0.92895261	      0.53797739	     11.22867682	      5.89697261	    -10.10703066	     18.84363152	     18.84363152	     12.35850206	     -0.96344327	     -3.18795202	     15.87045739	    -15.53360380	     -7.68847665	     55.11842922	     55.11842922	     13.52280005	    -19.37924308	     17.89954077	     -9.51701422	      7.62631266	      0.14954609	      6.43939373	    -19.25112191	    -11.63932563	     46.38412912	     45.82605798	      0.00000000	      0.00000000	     15.89464802	    -12.63790601	    -13.60772932	     71.34106154	     47.79619646	      0.00000000	      0.00000000
      4.88885714	     -3.19825136	     -5.17870255	     -6.33482495	      1.02767812	      0.92818601	      0.53946429	     10.96962878	      6.02362057	    -10.03989502	     19.59554523	     19.59554523	     13.12369677	     -1.93985078	     -2.72103414	     17.15722982	    -15.77787545	     -6.94538263	     56.23021448	     56.23021448	     14.50863841	    -19.44583752	     20.38164946	     -9.75038833	      7.54715565	      0.65074599	      8.17060124	    -19.43712487	    -11.67081304	     45.89193924	     45.84960276	      0.00000000	      0.00000000	     15.96676609	    -12.03055016	    -11.97413342	     66.32292554	     47.61269257	      0.00000000	      0.00000000
